# xmcd
#
# Track frame offsets:
#	150
#	13044
#	28759
#	40352
#	58719
#	79697
#	93615
#	115873
#	134639
#	152319
#	169110
#	184142
#	197824
#	210385
#	222952
#	235412
#
# Disc length: 3406 seconds
#
# Revision: 0
# Processed by: cddbd v1.5.1PL0 Copyright (c) Steve Scherf et al.
# Submitted via: EasyCDDAExtractor 8.0.1.1
#
DISCID=de0d4c10
DTITLE=Kari Peitsamo and Freud Marx Engels and Jung - Amerikkalaisia Unelmia
DYEAR=2005
DGENRE=Country
TTITLE0=Teksasin puupää
TTITLE1=Hukkareissu
TTITLE2=Takaisin Tupeloon
TTITLE3=Voi, maa!
TTITLE4=Charles Bronson
TTITLE5=Punaisen Dartin kirous
TTITLE6=Liikennesika
TTITLE7=Kesäpäivä pyöräs alla
TTITLE8=Cro Magnon
TTITLE9=Räpä rällääseen
TTITLE10=Europarlamenttiin
TTITLE11=Heikki lähti Hesaan
TTITLE12=En koskaan mene sänkyyn tyhjän pullon kanssa
TTITLE13=HD mies
TTITLE14=Acoustic Epiphone revenge man
TTITLE15=Quantánamo
EXTD=
EXTT0=
EXTT1=
EXTT2=
EXTT3=
EXTT4=
EXTT5=
EXTT6=
EXTT7=
EXTT8=
EXTT9=
EXTT10=
EXTT11=
EXTT12=
EXTT13=
EXTT14=
EXTT15=
PLAYORDER=
